{"title":"Inside Llewyn Davis 2013 WEBSCR x264 AAC-MiLLENiUM","uid":9482023,"size":780568431,"categoryP":"video","categoryS":"movies","magnet":"?xt=urn:btih:11211676f03812c77378b8692fb21b1d818d02e6&amp;dn=Inside+Llewyn+Davis+2013+WEBSCR+x264+AAC-MiLLENiUM&amp;tr=udp%3A%2F%2Ftracker.openbittorrent.com%3A80&amp;tr=udp%3A%2F%2Fopen.demonii.com%3A1337&amp;tr=udp%3A%2F%2Ftracker.coppersurfer.tk%3A6969&amp;tr=udp%3A%2F%2Fexodus.desync.com%3A6969","seeders":1,"leechers":0,"uploader":"NewSky005","files":7,"time":1389813830,"description":"Inside Llewyn Davis 2013 WEBSCR x264 AAC-MiLLENiUM                  \n\nGeneral\n\nSource...............: Thnx Bro\nIMDb Information.... : http://www.imdb.com/title/tt2042568/\nSample Included......: yes\n\nGeneral\nComplete name                            : Inside Llewyn Davis 2013 WEBSCR x264 AAC-MiLLENiUM.mp4\nFormat                                   : MPEG-4\nFormat profile                           : Base Media\nCodec ID                                 : isom\nFile size                                : 730 MiB\nDuration                                 : 1h 44mn\nOverall bit rate mode                    : Variable\nOverall bit rate                         : 975 Kbps\nEncoded date                             : UTC 2014-01-14 03:59:01\nTagged date                              : UTC 2014-01-14 03:59:01\n\nVideo\nID                                       : 1\nFormat                                   : AVC\nFormat/Info                              : Advanced Video Codec\nFormat profile                           : &lt;a class=&quot;__cf_email__&quot; href=&quot;/cdn-cgi/l/email-protection&quot; data-cfemail=&quot;a8e0c1cfc0e8e49c8699&quot;&gt;[email&amp;#160;protected]&lt;/a&gt;&lt;script cf-hash='f9e31' type=&quot;text/javascript&quot;&gt;\n/* &lt;![CDATA[ */!function(){try{var t=&quot;currentScript&quot;in document?document.currentScript:function(){for(var t=document.getElementsByTagName(&quot;script&quot;),e=t.length;e--;)if(t[e].getAttribute(&quot;cf-hash&quot;))return t[e]}();if(t&amp;&amp;t.previousSibling){var e,r,n,i,c=t.previousSibling,a=c.getAttribute(&quot;data-cfemail&quot;);if(a){for(e=&quot;&quot;,r=parseInt(a.substr(0,2),16),n=2;a.length-n;n+=2)i=parseInt(a.substr(n,2),16)^r,e+=String.fromCharCode(i);e=document.createTextNode(e),c.parentNode.replaceChild(e,c)}}}catch(u){}}();/* ]]&gt; */&lt;/script&gt;\nFormat settings, CABAC                   : Yes\nFormat settings, ReFrames                : 3 frames\nFormat settings, GOP                     : M=4, N=23\nCodec ID                                 : avc1\nCodec ID/Info                            : Advanced Video Coding\nDuration                                 : 1h 44mn\nBit rate mode                            : Variable\nBit rate                                 : 807 Kbps\nMaximum bit rate                         : 40.0 Mbps\nWidth                                    : 720 pixels\nHeight                                   : 368 pixels\nDisplay aspect ratio                     : 1.957\nFrame rate mode                          : Constant\nFrame rate                               : 23.976 fps\nColor space                              : YUV\nChroma subsampling                       : 4:2:0\nBit depth                                : 8 bits\nScan type                                : Progressive\nBits/(Pixel*Frame)                       : 0.127\nStream size                              : 604 MiB (83%)\nWriting library                          : x264 core 140 r2377 1ca7bb9\n\nAudio\nID                                       : 2\nFormat                                   : AAC\nFormat/Info                              : Advanced Audio Codec\nFormat profile                           : LC\nCodec ID                                 : 40\nDuration                                 : 1h 44mn\nBit rate mode                            : Variable\nBit rate                                 : 164 Kbps\nMaximum bit rate                         : 262 Kbps\nChannel(s)                               : 2 channels\nChannel positions                        : Front: L R\nSampling rate                            : 48.0 KHz\nCompression mode                         : Lossy\nStream size                              : 123 MiB (17%)\nLanguage                                 : English\nEncoded date                             : UTC 2014-01-14 03:59:19\nTagged date                              : UTC 2014-01-14 03:59:21\n\nPlot\n\nA week in the life of a young singer as he navigates the Greenwich Village folk scene of 1961.\nScreens\n[url]http://h33t.to/torrent/6081301/inside-llewyn-davis-2013-webscr-x264-aac-millenium[/url]","torrent":{"xt":"urn:btih:11211676f03812c77378b8692fb21b1d818d02e6","amp;dn":"Inside+Llewyn+Davis+2013+WEBSCR+x264+AAC-MiLLENiUM","amp;tr":["udp%3A%2F%2Ftracker.openbittorrent.com%3A80","udp%3A%2F%2Fopen.demonii.com%3A1337","udp%3A%2F%2Ftracker.coppersurfer.tk%3A6969","udp%3A%2F%2Fexodus.desync.com%3A6969"],"infoHash":"11211676f03812c77378b8692fb21b1d818d02e6","infoHashBuffer":{"type":"Buffer","data":[17,33,22,118,240,56,18,199,115,120,184,105,47,178,27,29,129,141,2,230]},"announce":[],"urlList":[]}}